<svg width="1440" height="1024" viewBox="0 0 1440 1024" fill="none" xmlns="http://www.w3.org/2000/svg">
<path d="M1372.75 0V46.4502H1440V51.4502H1372.75V97.9004H1440V102.9H1372.75V149.35H1440V154.35H1372.75V200.8H1440V205.8H1372.75V252.25H1440V257.25H1372.75V303.7H1440V308.7H1372.75V355.15H1440V360.15H1372.75V406.6H1440V411.6H1372.75V458.05H1440V463.05H1372.75V509.5H1440V514.5H1372.75V560.95H1440V565.95H1372.75V612.4H1440V617.4H1372.75V663.85H1440V668.85H1372.75V715.3H1440V720.3H1372.75V766.75H1440V771.75H1372.75V818.2H1440V823.2H1372.75V869.65H1440V874.65H1372.75V921.1H1440V926.1H1372.75V972.55H1440V977.55H1372.75V1024H1367.75V977.55H1300.5V1024H1295.5V977.55H1228.25V1024H1223.25V977.55H1156V1024H1151V977.55H1083.75V1024H1078.75V977.55H1011.5V1024H1006.5V977.55H939.25V1024H934.25V977.55H867V1024H862V977.55H794.75V1024H789.75V977.55H722.5V1024H717.5V977.55H650.25V1024H645.25V977.55H578V1024H573V977.55H505.75V1024H500.75V977.55H433.5V1024H428.5V977.55H361.25V1024H356.25V977.55H289V1024H284V977.55H216.75V1024H211.75V977.55H144.5V1024H139.5V977.55H72.25V1024H67.25V977.55H0V972.55H67.25V926.1H0V921.1H67.25V874.65H0V869.65H67.25V823.2H0V818.2H67.25V771.75H0V766.75H67.25V720.3H0V715.3H67.25V668.85H0V663.85H67.25V617.4H0V612.4H67.25V565.95H0V560.95H67.25V514.5H0V509.5H67.25V463.05H0V458.05H67.25V411.6H0V406.6H67.25V360.15H0V355.15H67.25V308.7H0V303.7H67.25V257.25H0V252.25H67.25V205.8H0V200.8H67.25V154.35H0V149.35H67.25V102.9H0V97.9004H67.25V51.4502H0V46.4502H67.25V0H72.25V46.4502H139.5V0H144.5V46.4502H211.75V0H216.75V46.4502H284V0H289V46.4502H356.25V0H361.25V46.4502H428.5V0H433.5V46.4502H500.75V0H505.75V46.4502H573V0H578V46.4502H645.25V0H650.25V46.4502H717.5V0H722.5V46.4502H789.75V0H794.75V46.4502H862V0H867V46.4502H934.25V0H939.25V46.4502H1006.5V0H1011.5V46.4502H1078.75V0H1083.75V46.4502H1151V0H1156V46.4502H1223.25V0H1228.25V46.4502H1295.5V0H1300.5V46.4502H1367.75V0H1372.75ZM72.25 926.1V972.55H139.5V926.1H72.25ZM144.5 926.1V972.55H211.75V926.1H144.5ZM216.75 926.1V972.55H284V926.1H216.75ZM289 926.1V972.55H356.25V926.1H289ZM361.25 926.1V972.55H428.5V926.1H361.25ZM433.5 926.1V972.55H500.75V926.1H433.5ZM505.75 926.1V972.55H573V926.1H505.75ZM578 926.1V972.55H645.25V926.1H578ZM650.25 926.1V972.55H717.5V926.1H650.25ZM722.5 926.1V972.55H789.75V926.1H722.5ZM794.75 926.1V972.55H862V926.1H794.75ZM867 926.1V972.55H934.25V926.1H867ZM939.25 926.1V972.55H1006.5V926.1H939.25ZM1011.5 926.1V972.55H1078.75V926.1H1011.5ZM1083.75 926.1V972.55H1151V926.1H1083.75ZM1156 926.1V972.55H1223.25V926.1H1156ZM1228.25 926.1V972.55H1295.5V926.1H1228.25ZM1300.5 926.1V972.55H1367.75V926.1H1300.5ZM72.25 874.65V921.1H139.5V874.65H72.25ZM144.5 874.65V921.1H211.75V874.65H144.5ZM216.75 874.65V921.1H284V874.65H216.75ZM289 874.65V921.1H356.25V874.65H289ZM361.25 874.65V921.1H428.5V874.65H361.25ZM433.5 874.65V921.1H500.75V874.65H433.5ZM505.75 874.65V921.1H573V874.65H505.75ZM578 874.65V921.1H645.25V874.65H578ZM650.25 874.65V921.1H717.5V874.65H650.25ZM722.5 874.65V921.1H789.75V874.65H722.5ZM794.75 874.65V921.1H862V874.65H794.75ZM867 874.65V921.1H934.25V874.65H867ZM939.25 874.65V921.1H1006.5V874.65H939.25ZM1011.5 874.65V921.1H1078.75V874.65H1011.5ZM1083.75 874.65V921.1H1151V874.65H1083.75ZM1156 874.65V921.1H1223.25V874.65H1156ZM1228.25 874.65V921.1H1295.5V874.65H1228.25ZM1300.5 874.65V921.1H1367.75V874.65H1300.5ZM72.25 823.2V869.65H139.5V823.2H72.25ZM144.5 823.2V869.65H211.75V823.2H144.5ZM216.75 823.2V869.65H284V823.2H216.75ZM289 823.2V869.65H356.25V823.2H289ZM361.25 823.2V869.65H428.5V823.2H361.25ZM433.5 823.2V869.65H500.75V823.2H433.5ZM505.75 823.2V869.65H573V823.2H505.75ZM578 823.2V869.65H645.25V823.2H578ZM650.25 823.2V869.65H717.5V823.2H650.25ZM722.5 823.2V869.65H789.75V823.2H722.5ZM794.75 823.2V869.65H862V823.2H794.75ZM867 823.2V869.65H934.25V823.2H867ZM939.25 823.2V869.65H1006.5V823.2H939.25ZM1011.5 823.2V869.65H1078.75V823.2H1011.5ZM1083.75 823.2V869.65H1151V823.2H1083.75ZM1156 823.2V869.65H1223.25V823.2H1156ZM1228.25 823.2V869.65H1295.5V823.2H1228.25ZM1300.5 823.2V869.65H1367.75V823.2H1300.5ZM72.25 771.75V818.2H139.5V771.75H72.25ZM144.5 771.75V818.2H211.75V771.75H144.5ZM216.75 771.75V818.2H284V771.75H216.75ZM289 771.75V818.2H356.25V771.75H289ZM361.25 771.75V818.2H428.5V771.75H361.25ZM433.5 771.75V818.2H500.75V771.75H433.5ZM505.75 771.75V818.2H573V771.75H505.75ZM578 771.75V818.2H645.25V771.75H578ZM650.25 771.75V818.2H717.5V771.75H650.25ZM722.5 771.75V818.2H789.75V771.75H722.5ZM794.75 771.75V818.2H862V771.75H794.75ZM867 771.75V818.2H934.25V771.75H867ZM939.25 771.75V818.2H1006.5V771.75H939.25ZM1011.5 771.75V818.2H1078.75V771.75H1011.5ZM1083.75 771.75V818.2H1151V771.75H1083.75ZM1156 771.75V818.2H1223.25V771.75H1156ZM1228.25 771.75V818.2H1295.5V771.75H1228.25ZM1300.5 771.75V818.2H1367.75V771.75H1300.5ZM72.25 720.3V766.75H139.5V720.3H72.25ZM144.5 720.3V766.75H211.75V720.3H144.5ZM216.75 720.3V766.75H284V720.3H216.75ZM289 720.3V766.75H356.25V720.3H289ZM361.25 720.3V766.75H428.5V720.3H361.25ZM433.5 720.3V766.75H500.75V720.3H433.5ZM505.75 720.3V766.75H573V720.3H505.75ZM578 720.3V766.75H645.25V720.3H578ZM650.25 720.3V766.75H717.5V720.3H650.25ZM722.5 720.3V766.75H789.75V720.3H722.5ZM794.75 720.3V766.75H862V720.3H794.75ZM867 720.3V766.75H934.25V720.3H867ZM939.25 720.3V766.75H1006.5V720.3H939.25ZM1011.5 720.3V766.75H1078.75V720.3H1011.5ZM1083.75 720.3V766.75H1151V720.3H1083.75ZM1156 720.3V766.75H1223.25V720.3H1156ZM1228.25 720.3V766.75H1295.5V720.3H1228.25ZM1300.5 720.3V766.75H1367.75V720.3H1300.5ZM72.25 668.85V715.3H139.5V668.85H72.25ZM144.5 668.85V715.3H211.75V668.85H144.5ZM216.75 668.85V715.3H284V668.85H216.75ZM289 668.85V715.3H356.25V668.85H289ZM361.25 668.85V715.3H428.5V668.85H361.25ZM433.5 668.85V715.3H500.75V668.85H433.5ZM505.75 668.85V715.3H573V668.85H505.75ZM578 668.85V715.3H645.25V668.85H578ZM650.25 668.85V715.3H717.5V668.85H650.25ZM722.5 668.85V715.3H789.75V668.85H722.5ZM794.75 668.85V715.3H862V668.85H794.75ZM867 668.85V715.3H934.25V668.85H867ZM939.25 668.85V715.3H1006.5V668.85H939.25ZM1011.5 668.85V715.3H1078.75V668.85H1011.5ZM1083.75 668.85V715.3H1151V668.85H1083.75ZM1156 668.85V715.3H1223.25V668.85H1156ZM1228.25 668.85V715.3H1295.5V668.85H1228.25ZM1300.5 668.85V715.3H1367.75V668.85H1300.5ZM72.25 617.4V663.85H139.5V617.4H72.25ZM144.5 617.4V663.85H211.75V617.4H144.5ZM216.75 617.4V663.85H284V617.4H216.75ZM289 617.4V663.85H356.25V617.4H289ZM361.25 617.4V663.85H428.5V617.4H361.25ZM433.5 617.4V663.85H500.75V617.4H433.5ZM505.75 617.4V663.85H573V617.4H505.75ZM578 617.4V663.85H645.25V617.4H578ZM650.25 617.4V663.85H717.5V617.4H650.25ZM722.5 617.4V663.85H789.75V617.4H722.5ZM794.75 617.4V663.85H862V617.4H794.75ZM867 617.4V663.85H934.25V617.4H867ZM939.25 617.4V663.85H1006.5V617.4H939.25ZM1011.5 617.4V663.85H1078.75V617.4H1011.5ZM1083.75 617.4V663.85H1151V617.4H1083.75ZM1156 617.4V663.85H1223.25V617.4H1156ZM1228.25 617.4V663.85H1295.5V617.4H1228.25ZM1300.5 617.4V663.85H1367.75V617.4H1300.5ZM72.25 565.95V612.4H139.5V565.95H72.25ZM144.5 565.95V612.4H211.75V565.95H144.5ZM216.75 565.95V612.4H284V565.95H216.75ZM289 565.95V612.4H356.25V565.95H289ZM361.25 565.95V612.4H428.5V565.95H361.25ZM433.5 565.95V612.4H500.75V565.95H433.5ZM505.75 565.95V612.4H573V565.95H505.75ZM578 565.95V612.4H645.25V565.95H578ZM650.25 565.95V612.4H717.5V565.95H650.25ZM722.5 565.95V612.4H789.75V565.95H722.5ZM794.75 565.95V612.4H862V565.95H794.75ZM867 565.95V612.4H934.25V565.95H867ZM939.25 565.95V612.4H1006.5V565.95H939.25ZM1011.5 565.95V612.4H1078.75V565.95H1011.5ZM1083.75 565.95V612.4H1151V565.95H1083.75ZM1156 565.95V612.4H1223.25V565.95H1156ZM1228.25 565.95V612.4H1295.5V565.95H1228.25ZM1300.5 565.95V612.4H1367.75V565.95H1300.5ZM72.25 514.5V560.95H139.5V514.5H72.25ZM144.5 514.5V560.95H211.75V514.5H144.5ZM216.75 514.5V560.95H284V514.5H216.75ZM289 514.5V560.95H356.25V514.5H289ZM361.25 514.5V560.95H428.5V514.5H361.25ZM433.5 514.5V560.95H500.75V514.5H433.5ZM505.75 514.5V560.95H573V514.5H505.75ZM578 514.5V560.95H645.25V514.5H578ZM650.25 514.5V560.95H717.5V514.5H650.25ZM722.5 514.5V560.95H789.75V514.5H722.5ZM794.75 514.5V560.95H862V514.5H794.75ZM867 514.5V560.95H934.25V514.5H867ZM939.25 514.5V560.95H1006.5V514.5H939.25ZM1011.5 514.5V560.95H1078.75V514.5H1011.5ZM1083.75 514.5V560.95H1151V514.5H1083.75ZM1156 514.5V560.95H1223.25V514.5H1156ZM1228.25 514.5V560.95H1295.5V514.5H1228.25ZM1300.5 514.5V560.95H1367.75V514.5H1300.5ZM72.25 463.05V509.5H139.5V463.05H72.25ZM144.5 463.05V509.5H211.75V463.05H144.5ZM216.75 463.05V509.5H284V463.05H216.75ZM289 463.05V509.5H356.25V463.05H289ZM361.25 463.05V509.5H428.5V463.05H361.25ZM433.5 463.05V509.5H500.75V463.05H433.5ZM505.75 463.05V509.5H573V463.05H505.75ZM578 463.05V509.5H645.25V463.05H578ZM650.25 463.05V509.5H717.5V463.05H650.25ZM722.5 463.05V509.5H789.75V463.05H722.5ZM794.75 463.05V509.5H862V463.05H794.75ZM867 463.05V509.5H934.25V463.05H867ZM939.25 463.05V509.5H1006.5V463.05H939.25ZM1011.5 463.05V509.5H1078.75V463.05H1011.5ZM1083.75 463.05V509.5H1151V463.05H1083.75ZM1156 463.05V509.5H1223.25V463.05H1156ZM1228.25 463.05V509.5H1295.5V463.05H1228.25ZM1300.5 463.05V509.5H1367.75V463.05H1300.5ZM72.25 411.6V458.05H139.5V411.6H72.25ZM144.5 411.6V458.05H211.75V411.6H144.5ZM216.75 411.6V458.05H284V411.6H216.75ZM289 411.6V458.05H356.25V411.6H289ZM361.25 411.6V458.05H428.5V411.6H361.25ZM433.5 411.6V458.05H500.75V411.6H433.5ZM505.75 411.6V458.05H573V411.6H505.75ZM578 411.6V458.05H645.25V411.6H578ZM650.25 411.6V458.05H717.5V411.6H650.25ZM722.5 411.6V458.05H789.75V411.6H722.5ZM794.75 411.6V458.05H862V411.6H794.75ZM867 411.6V458.05H934.25V411.6H867ZM939.25 411.6V458.05H1006.5V411.6H939.25ZM1011.5 411.6V458.05H1078.75V411.6H1011.5ZM1083.75 411.6V458.05H1151V411.6H1083.75ZM1156 411.6V458.05H1223.25V411.6H1156ZM1228.25 411.6V458.05H1295.5V411.6H1228.25ZM1300.5 411.6V458.05H1367.75V411.6H1300.5ZM72.25 360.15V406.6H139.5V360.15H72.25ZM144.5 360.15V406.6H211.75V360.15H144.5ZM216.75 360.15V406.6H284V360.15H216.75ZM289 360.15V406.6H356.25V360.15H289ZM361.25 360.15V406.6H428.5V360.15H361.25ZM433.5 360.15V406.6H500.75V360.15H433.5ZM505.75 360.15V406.6H573V360.15H505.75ZM578 360.15V406.6H645.25V360.15H578ZM650.25 360.15V406.6H717.5V360.15H650.25ZM722.5 360.15V406.6H789.75V360.15H722.5ZM794.75 360.15V406.6H862V360.15H794.75ZM867 360.15V406.6H934.25V360.15H867ZM939.25 360.15V406.6H1006.5V360.15H939.25ZM1011.5 360.15V406.6H1078.75V360.15H1011.5ZM1083.75 360.15V406.6H1151V360.15H1083.75ZM1156 360.15V406.6H1223.25V360.15H1156ZM1228.25 360.15V406.6H1295.5V360.15H1228.25ZM1300.5 360.15V406.6H1367.75V360.15H1300.5ZM72.25 308.7V355.15H139.5V308.7H72.25ZM144.5 308.7V355.15H211.75V308.7H144.5ZM216.75 308.7V355.15H284V308.7H216.75ZM289 308.7V355.15H356.25V308.7H289ZM361.25 308.7V355.15H428.5V308.7H361.25ZM433.5 308.7V355.15H500.75V308.7H433.5ZM505.75 308.7V355.15H573V308.7H505.75ZM578 308.7V355.15H645.25V308.7H578ZM650.25 308.7V355.15H717.5V308.7H650.25ZM722.5 308.7V355.15H789.75V308.7H722.5ZM794.75 308.7V355.15H862V308.7H794.75ZM867 308.7V355.15H934.25V308.7H867ZM939.25 308.7V355.15H1006.5V308.7H939.25ZM1011.5 308.7V355.15H1078.75V308.7H1011.5ZM1083.75 308.7V355.15H1151V308.7H1083.75ZM1156 308.7V355.15H1223.25V308.7H1156ZM1228.25 308.7V355.15H1295.5V308.7H1228.25ZM1300.5 308.7V355.15H1367.75V308.7H1300.5ZM72.25 257.25V303.7H139.5V257.25H72.25ZM144.5 257.25V303.7H211.75V257.25H144.5ZM216.75 257.25V303.7H284V257.25H216.75ZM289 257.25V303.7H356.25V257.25H289ZM361.25 257.25V303.7H428.5V257.25H361.25ZM433.5 257.25V303.7H500.75V257.25H433.5ZM505.75 257.25V303.7H573V257.25H505.75ZM578 257.25V303.7H645.25V257.25H578ZM650.25 257.25V303.7H717.5V257.25H650.25ZM722.5 257.25V303.7H789.75V257.25H722.5ZM794.75 257.25V303.7H862V257.25H794.75ZM867 257.25V303.7H934.25V257.25H867ZM939.25 257.25V303.7H1006.5V257.25H939.25ZM1011.5 257.25V303.7H1078.75V257.25H1011.5ZM1083.75 257.25V303.7H1151V257.25H1083.75ZM1156 257.25V303.7H1223.25V257.25H1156ZM1228.25 257.25V303.7H1295.5V257.25H1228.25ZM1300.5 257.25V303.7H1367.75V257.25H1300.5ZM72.25 205.8V252.25H139.5V205.8H72.25ZM144.5 205.8V252.25H211.75V205.8H144.5ZM216.75 205.8V252.25H284V205.8H216.75ZM289 205.8V252.25H356.25V205.8H289ZM361.25 205.8V252.25H428.5V205.8H361.25ZM433.5 205.8V252.25H500.75V205.8H433.5ZM505.75 205.8V252.25H573V205.8H505.75ZM578 205.8V252.25H645.25V205.8H578ZM650.25 205.8V252.25H717.5V205.8H650.25ZM722.5 205.8V252.25H789.75V205.8H722.5ZM794.75 205.8V252.25H862V205.8H794.75ZM867 205.8V252.25H934.25V205.8H867ZM939.25 205.8V252.25H1006.5V205.8H939.25ZM1011.5 205.8V252.25H1078.75V205.8H1011.5ZM1083.75 205.8V252.25H1151V205.8H1083.75ZM1156 205.8V252.25H1223.25V205.8H1156ZM1228.25 205.8V252.25H1295.5V205.8H1228.25ZM1300.5 205.8V252.25H1367.75V205.8H1300.5ZM72.25 154.35V200.8H139.5V154.35H72.25ZM144.5 154.35V200.8H211.75V154.35H144.5ZM216.75 154.35V200.8H284V154.35H216.75ZM289 154.35V200.8H356.25V154.35H289ZM361.25 154.35V200.8H428.5V154.35H361.25ZM433.5 154.35V200.8H500.75V154.35H433.5ZM505.75 154.35V200.8H573V154.35H505.75ZM578 154.35V200.8H645.25V154.35H578ZM650.25 154.35V200.8H717.5V154.35H650.25ZM722.5 154.35V200.8H789.75V154.35H722.5ZM794.75 154.35V200.8H862V154.35H794.75ZM867 154.35V200.8H934.25V154.35H867ZM939.25 154.35V200.8H1006.5V154.35H939.25ZM1011.5 154.35V200.8H1078.75V154.35H1011.5ZM1083.75 154.35V200.8H1151V154.35H1083.75ZM1156 154.35V200.8H1223.25V154.35H1156ZM1228.25 154.35V200.8H1295.5V154.35H1228.25ZM1300.5 154.35V200.8H1367.75V154.35H1300.5ZM72.25 102.9V149.35H139.5V102.9H72.25ZM144.5 102.9V149.35H211.75V102.9H144.5ZM216.75 102.9V149.35H284V102.9H216.75ZM289 102.9V149.35H356.25V102.9H289ZM361.25 102.9V149.35H428.5V102.9H361.25ZM433.5 102.9V149.35H500.75V102.9H433.5ZM505.75 102.9V149.35H573V102.9H505.75ZM578 102.9V149.35H645.25V102.9H578ZM650.25 102.9V149.35H717.5V102.9H650.25ZM722.5 102.9V149.35H789.75V102.9H722.5ZM794.75 102.9V149.35H862V102.9H794.75ZM867 102.9V149.35H934.25V102.9H867ZM939.25 102.9V149.35H1006.5V102.9H939.25ZM1011.5 102.9V149.35H1078.75V102.9H1011.5ZM1083.75 102.9V149.35H1151V102.9H1083.75ZM1156 102.9V149.35H1223.25V102.9H1156ZM1228.25 102.9V149.35H1295.5V102.9H1228.25ZM1300.5 102.9V149.35H1367.75V102.9H1300.5ZM72.25 51.4502V97.9004H139.5V51.4502H72.25ZM144.5 51.4502V97.9004H211.75V51.4502H144.5ZM216.75 51.4502V97.9004H284V51.4502H216.75ZM289 51.4502V97.9004H356.25V51.4502H289ZM361.25 51.4502V97.9004H428.5V51.4502H361.25ZM433.5 51.4502V97.9004H500.75V51.4502H433.5ZM505.75 51.4502V97.9004H573V51.4502H505.75ZM578 51.4502V97.9004H645.25V51.4502H578ZM650.25 51.4502V97.9004H717.5V51.4502H650.25ZM722.5 51.4502V97.9004H789.75V51.4502H722.5ZM794.75 51.4502V97.9004H862V51.4502H794.75ZM867 51.4502V97.9004H934.25V51.4502H867ZM939.25 51.4502V97.9004H1006.5V51.4502H939.25ZM1011.5 51.4502V97.9004H1078.75V51.4502H1011.5ZM1083.75 51.4502V97.9004H1151V51.4502H1083.75ZM1156 51.4502V97.9004H1223.25V51.4502H1156ZM1228.25 51.4502V97.9004H1295.5V51.4502H1228.25ZM1300.5 51.4502V97.9004H1367.75V51.4502H1300.5Z" fill="#D9D9D9"/>
</svg>
